<svg id="visual" viewBox="0 0 900 600" width="900" height="600" xmlns="http://www.w3.org/2000/svg" xmlns:xlink="http://www.w3.org/1999/xlink" version="1.1"><rect x="0" y="0" width="900" height="600" fill="#001122"></rect><defs><linearGradient id="grad1_0" x1="33.3%" y1="100%" x2="100%" y2="0%"><stop offset="20%" stop-color="#001122" stop-opacity="1"></stop><stop offset="80%" stop-color="#001122" stop-opacity="1"></stop></linearGradient></defs><defs><linearGradient id="grad2_0" x1="0%" y1="100%" x2="66.7%" y2="0%"><stop offset="20%" stop-color="#001122" stop-opacity="1"></stop><stop offset="80%" stop-color="#001122" stop-opacity="1"></stop></linearGradient></defs><g transform="translate(900, 600)"><path d="M-311 0C-351.7 -59 -392.5 -117.9 -374.7 -155.2C-357 -192.5 -280.8 -208.2 -231.2 -231.2C-181.7 -254.3 -158.8 -284.7 -124.8 -301.2C-90.7 -317.7 -45.3 -320.4 0 -323L0 0Z" fill="#FF0066"></path></g><g transform="translate(0, 0)"><path d="M405.6 0C361.6 39.2 317.6 78.3 295.6 122.5C273.7 166.6 273.7 215.7 250.3 250.3C226.9 284.9 180 305.1 134.3 324.3C88.7 343.5 44.3 361.7 0 380L0 0Z" fill="#FF0066"></path></g></svg>