<svg id="visual" viewBox="0 0 900 600" width="900" height="600" xmlns="http://www.w3.org/2000/svg" xmlns:xlink="http://www.w3.org/1999/xlink" version="1.1"><rect x="0" y="0" width="900" height="600" fill="#001220"></rect><defs><linearGradient id="grad1_0" x1="33.3%" y1="0%" x2="100%" y2="100%"><stop offset="20%" stop-color="#c62368" stop-opacity="1"></stop><stop offset="80%" stop-color="#c62368" stop-opacity="1"></stop></linearGradient></defs><defs><linearGradient id="grad1_1" x1="33.3%" y1="0%" x2="100%" y2="100%"><stop offset="20%" stop-color="#c62368" stop-opacity="1"></stop><stop offset="80%" stop-color="#8a2b72" stop-opacity="1"></stop></linearGradient></defs><defs><linearGradient id="grad1_2" x1="33.3%" y1="0%" x2="100%" y2="100%"><stop offset="20%" stop-color="#4b2d66" stop-opacity="1"></stop><stop offset="80%" stop-color="#8a2b72" stop-opacity="1"></stop></linearGradient></defs><defs><linearGradient id="grad1_3" x1="33.3%" y1="0%" x2="100%" y2="100%"><stop offset="20%" stop-color="#4b2d66" stop-opacity="1"></stop><stop offset="80%" stop-color="#172447" stop-opacity="1"></stop></linearGradient></defs><defs><linearGradient id="grad1_4" x1="33.3%" y1="0%" x2="100%" y2="100%"><stop offset="20%" stop-color="#001220" stop-opacity="1"></stop><stop offset="80%" stop-color="#172447" stop-opacity="1"></stop></linearGradient></defs><defs><linearGradient id="grad2_0" x1="0%" y1="0%" x2="66.7%" y2="100%"><stop offset="20%" stop-color="#c62368" stop-opacity="1"></stop><stop offset="80%" stop-color="#c62368" stop-opacity="1"></stop></linearGradient></defs><defs><linearGradient id="grad2_1" x1="0%" y1="0%" x2="66.7%" y2="100%"><stop offset="20%" stop-color="#8a2b72" stop-opacity="1"></stop><stop offset="80%" stop-color="#c62368" stop-opacity="1"></stop></linearGradient></defs><defs><linearGradient id="grad2_2" x1="0%" y1="0%" x2="66.7%" y2="100%"><stop offset="20%" stop-color="#8a2b72" stop-opacity="1"></stop><stop offset="80%" stop-color="#4b2d66" stop-opacity="1"></stop></linearGradient></defs><defs><linearGradient id="grad2_3" x1="0%" y1="0%" x2="66.7%" y2="100%"><stop offset="20%" stop-color="#172447" stop-opacity="1"></stop><stop offset="80%" stop-color="#4b2d66" stop-opacity="1"></stop></linearGradient></defs><defs><linearGradient id="grad2_4" x1="0%" y1="0%" x2="66.7%" y2="100%"><stop offset="20%" stop-color="#172447" stop-opacity="1"></stop><stop offset="80%" stop-color="#001220" stop-opacity="1"></stop></linearGradient></defs><g transform="translate(900, 0)"><path d="M0 378.6C-23.4 360.1 -46.8 341.7 -78.1 342.2C-109.4 342.7 -148.5 362.2 -161.4 335.2C-174.3 308.1 -160.9 234.4 -156.5 196.2C-152.1 158 -156.8 155.3 -202.5 161.5C-248.2 167.7 -335 182.8 -341.1 164.3C-347.1 145.7 -272.4 93.5 -265.2 60.5C-258 27.5 -318.3 13.8 -378.6 0L0 0Z" fill="#061c33"></path><path d="M0 302.9C-18.7 288.1 -37.5 273.3 -62.5 273.8C-87.5 274.2 -118.8 289.8 -129.1 268.1C-139.4 246.5 -128.7 187.6 -125.2 157C-121.7 126.4 -125.4 124.2 -162 129.2C-198.6 134.1 -268 146.2 -272.9 131.4C-277.7 116.6 -217.9 74.8 -212.1 48.4C-206.4 22 -254.6 11 -302.9 0L0 0Z" fill="#2f2958"></path><path d="M0 227.1C-14 216.1 -28.1 205 -46.9 205.3C-65.6 205.6 -89.1 217.3 -96.8 201.1C-104.6 184.9 -96.5 140.7 -93.9 117.7C-91.3 94.8 -94.1 93.2 -121.5 96.9C-148.9 100.6 -201 109.7 -204.7 98.6C-208.3 87.4 -163.4 56.1 -159.1 36.3C-154.8 16.5 -191 8.3 -227.1 0L0 0Z" fill="#6a2d6f"></path><path d="M0 151.4C-9.4 144.1 -18.7 136.7 -31.2 136.9C-43.8 137.1 -59.4 144.9 -64.6 134.1C-69.7 123.2 -64.3 93.8 -62.6 78.5C-60.8 63.2 -62.7 62.1 -81 64.6C-99.3 67.1 -134 73.1 -136.4 65.7C-138.9 58.3 -109 37.4 -106.1 24.2C-103.2 11 -127.3 5.5 -151.4 0L0 0Z" fill="#a92670"></path><path d="M0 75.7C-4.7 72 -9.4 68.3 -15.6 68.4C-21.9 68.5 -29.7 72.4 -32.3 67C-34.9 61.6 -32.2 46.9 -31.3 39.2C-30.4 31.6 -31.4 31.1 -40.5 32.3C-49.6 33.5 -67 36.6 -68.2 32.9C-69.4 29.1 -54.5 18.7 -53 12.1C-51.6 5.5 -63.7 2.8 -75.7 0L0 0Z" fill="#c62368"></path></g><g transform="translate(0, 600)"><path d="M0 -378.6C20.8 -335.2 41.6 -291.8 61.2 -268.1C80.8 -244.4 99.2 -240.5 111.1 -230.6C123 -220.8 128.4 -205 170.8 -214.2C213.3 -223.4 292.8 -257.6 296 -236C299.2 -214.5 226 -137.1 211.7 -102C197.5 -66.8 242.2 -73.8 279.8 -63.9C317.4 -53.9 348 -27 378.6 0L0 0Z" fill="#061c33"></path><path d="M0 -302.9C16.6 -268.1 33.3 -233.4 49 -214.5C64.6 -195.5 79.3 -192.4 88.9 -184.5C98.4 -176.6 102.7 -164 136.7 -171.4C170.6 -178.7 234.3 -206.1 236.8 -188.8C239.3 -171.6 180.8 -109.7 169.4 -81.6C158 -53.4 193.7 -59.1 223.8 -51.1C253.9 -43.1 278.4 -21.6 302.9 0L0 0Z" fill="#2f2958"></path><path d="M0 -227.1C12.5 -201.1 25 -175.1 36.7 -160.9C48.5 -146.7 59.5 -144.3 66.6 -138.4C73.8 -132.5 77 -123 102.5 -128.5C128 -134.1 175.7 -154.6 177.6 -141.6C179.5 -128.7 135.6 -82.3 127 -61.2C118.5 -40.1 145.3 -44.3 167.9 -38.3C190.5 -32.3 208.8 -16.2 227.1 0L0 0Z" fill="#6a2d6f"></path><path d="M0 -151.4C8.3 -134.1 16.6 -116.7 24.5 -107.2C32.3 -97.8 39.7 -96.2 44.4 -92.3C49.2 -88.3 51.3 -82 68.3 -85.7C85.3 -89.4 117.1 -103 118.4 -94.4C119.7 -85.8 90.4 -54.8 84.7 -40.8C79 -26.7 96.9 -29.5 111.9 -25.5C127 -21.6 139.2 -10.8 151.4 0L0 0Z" fill="#a92670"></path><path d="M0 -75.7C4.2 -67 8.3 -58.4 12.2 -53.6C16.2 -48.9 19.8 -48.1 22.2 -46.1C24.6 -44.2 25.7 -41 34.2 -42.8C42.7 -44.7 58.6 -51.5 59.2 -47.2C59.8 -42.9 45.2 -27.4 42.3 -20.4C39.5 -13.4 48.4 -14.8 56 -12.8C63.5 -10.8 69.6 -5.4 75.7 0L0 0Z" fill="#c62368"></path></g></svg>