<svg id="visual" viewBox="0 0 900 600" width="900" height="600" xmlns="http://www.w3.org/2000/svg" xmlns:xlink="http://www.w3.org/1999/xlink" version="1.1"><rect x="0" y="0" width="900" height="600" fill="#001222"></rect><path d="M0 435L11.5 429C23 423 46 411 69 412.2C92 413.3 115 427.7 138.2 427.8C161.3 428 184.7 414 207.8 414.7C231 415.3 254 430.7 277 436.8C300 443 323 440 346 431.3C369 422.7 392 408.3 415.2 405.7C438.3 403 461.7 412 484.8 422C508 432 531 443 554 447.3C577 451.7 600 449.3 623 446.7C646 444 669 441 692.2 436.3C715.3 431.7 738.7 425.3 761.8 423C785 420.7 808 422.3 831 418.5C854 414.7 877 405.3 888.5 400.7L900 396L900 601L888.5 601C877 601 854 601 831 601C808 601 785 601 761.8 601C738.7 601 715.3 601 692.2 601C669 601 646 601 623 601C600 601 577 601 554 601C531 601 508 601 484.8 601C461.7 601 438.3 601 415.2 601C392 601 369 601 346 601C323 601 300 601 277 601C254 601 231 601 207.8 601C184.7 601 161.3 601 138.2 601C115 601 92 601 69 601C46 601 23 601 11.5 601L0 601Z" fill="#f7770f"></path><path d="M0 438L11.5 445.8C23 453.7 46 469.3 69 473.7C92 478 115 471 138.2 462.7C161.3 454.3 184.7 444.7 207.8 441.7C231 438.7 254 442.3 277 448.8C300 455.3 323 464.7 346 466.3C369 468 392 462 415.2 461.3C438.3 460.7 461.7 465.3 484.8 467.5C508 469.7 531 469.3 554 469.5C577 469.7 600 470.3 623 464.8C646 459.3 669 447.7 692.2 441.7C715.3 435.7 738.7 435.3 761.8 436.5C785 437.7 808 440.3 831 448.2C854 456 877 469 888.5 475.5L900 482L900 601L888.5 601C877 601 854 601 831 601C808 601 785 601 761.8 601C738.7 601 715.3 601 692.2 601C669 601 646 601 623 601C600 601 577 601 554 601C531 601 508 601 484.8 601C461.7 601 438.3 601 415.2 601C392 601 369 601 346 601C323 601 300 601 277 601C254 601 231 601 207.8 601C184.7 601 161.3 601 138.2 601C115 601 92 601 69 601C46 601 23 601 11.5 601L0 601Z" fill="#f55c31"></path><path d="M0 515L11.5 512.3C23 509.7 46 504.3 69 496C92 487.7 115 476.3 138.2 474.2C161.3 472 184.7 479 207.8 486.5C231 494 254 502 277 500.3C300 498.7 323 487.3 346 481.8C369 476.3 392 476.7 415.2 480.7C438.3 484.7 461.7 492.3 484.8 491C508 489.7 531 479.3 554 478.7C577 478 600 487 623 494.5C646 502 669 508 692.2 507.3C715.3 506.7 738.7 499.3 761.8 496.3C785 493.3 808 494.7 831 498.5C854 502.3 877 508.7 888.5 511.8L900 515L900 601L888.5 601C877 601 854 601 831 601C808 601 785 601 761.8 601C738.7 601 715.3 601 692.2 601C669 601 646 601 623 601C600 601 577 601 554 601C531 601 508 601 484.8 601C461.7 601 438.3 601 415.2 601C392 601 369 601 346 601C323 601 300 601 277 601C254 601 231 601 207.8 601C184.7 601 161.3 601 138.2 601C115 601 92 601 69 601C46 601 23 601 11.5 601L0 601Z" fill="#ec4347"></path><path d="M0 528L11.5 528.5C23 529 46 530 69 533.3C92 536.7 115 542.3 138.2 538.8C161.3 535.3 184.7 522.7 207.8 517.2C231 511.7 254 513.3 277 512.2C300 511 323 507 346 505C369 503 392 503 415.2 503.2C438.3 503.3 461.7 503.7 484.8 511C508 518.3 531 532.7 554 534.8C577 537 600 527 623 526C646 525 669 533 692.2 531C715.3 529 738.7 517 761.8 516.2C785 515.3 808 525.7 831 528C854 530.3 877 524.7 888.5 521.8L900 519L900 601L888.5 601C877 601 854 601 831 601C808 601 785 601 761.8 601C738.7 601 715.3 601 692.2 601C669 601 646 601 623 601C600 601 577 601 554 601C531 601 508 601 484.8 601C461.7 601 438.3 601 415.2 601C392 601 369 601 346 601C323 601 300 601 277 601C254 601 231 601 207.8 601C184.7 601 161.3 601 138.2 601C115 601 92 601 69 601C46 601 23 601 11.5 601L0 601Z" fill="#dc2f59"></path><path d="M0 554L11.5 552.3C23 550.7 46 547.3 69 550C92 552.7 115 561.3 138.2 561C161.3 560.7 184.7 551.3 207.8 546.2C231 541 254 540 277 543.3C300 546.7 323 554.3 346 558C369 561.7 392 561.3 415.2 559.5C438.3 557.7 461.7 554.3 484.8 553.7C508 553 531 555 554 554.3C577 553.7 600 550.3 623 552.3C646 554.3 669 561.7 692.2 563C715.3 564.3 738.7 559.7 761.8 558C785 556.3 808 557.7 831 560.3C854 563 877 567 888.5 569L900 571L900 601L888.5 601C877 601 854 601 831 601C808 601 785 601 761.8 601C738.7 601 715.3 601 692.2 601C669 601 646 601 623 601C600 601 577 601 554 601C531 601 508 601 484.8 601C461.7 601 438.3 601 415.2 601C392 601 369 601 346 601C323 601 300 601 277 601C254 601 231 601 207.8 601C184.7 601 161.3 601 138.2 601C115 601 92 601 69 601C46 601 23 601 11.5 601L0 601Z" fill="#c62368"></path></svg>