<svg width="43" height="43" viewBox="0 0 43 43" fill="none" xmlns="http://www.w3.org/2000/svg">
<circle r="20.5" transform="matrix(-1 0 0 1 21.5 21.5)" stroke="#93DAE3" stroke-width="2"/>
<path d="M23.5469 9.32812L24.125 9.6875C23.2604 11.1667 22.6458 12.474 22.2812 13.6094C21.9167 14.7448 21.6771 16.0729 21.5625 17.5938L27.5469 12.8438L31.1875 17.0781L24.9688 21.5156C25.9271 22.026 26.7604 22.6615 27.4688 23.4219C28.1875 24.1719 29.0208 25.349 29.9688 26.9531C30.9167 28.5573 31.4948 29.474 31.7031 29.7031C31.9115 29.9219 32.1146 30.0312 32.3125 30.0312C32.5104 30.0312 32.8125 29.8281 33.2188 29.4219L34.0312 28.6562L34.5156 29.2344L30.625 33C30.0833 32.625 29.6562 32.2396 29.3438 31.8438C29.0312 31.4375 28.349 30.2917 27.2969 28.4062L23.2656 33C22.0156 32.4479 20.8854 32.0521 19.875 31.8125C18.8646 31.5729 17.8281 31.4531 16.7656 31.4531C15.724 31.4531 14.7031 31.5729 13.7031 31.8125C12.7031 32.0417 11.5521 32.4375 10.25 33L9.75 32.2812C11.7917 30.6562 13.2552 29.2135 14.1406 27.9531C14.5781 27.3281 14.7969 26.724 14.7969 26.1406C14.7969 25.5885 14.6146 25.1302 14.25 24.7656C13.8854 24.401 13.4531 24.2188 12.9531 24.2188C12.4948 24.2188 12.0885 24.4479 11.7344 24.9062L11.1875 24.6562C11.375 24.0417 11.6875 23.5677 12.125 23.2344C12.5729 22.8906 13.0781 22.7188 13.6406 22.7188C14.0052 22.7188 14.3854 22.7917 14.7812 22.9375C15.1771 23.0833 15.5885 23.3073 16.0156 23.6094C16.0365 23.276 16.0469 22.9844 16.0469 22.7344C16.0469 21.6198 15.724 20.7188 15.0781 20.0312C14.4323 19.3438 13.6562 19 12.75 19C12.2292 19 11.7083 19.2292 11.1875 19.6875L10.6719 19.4844C10.9219 18.8177 11.2917 18.3177 11.7812 17.9844C12.2708 17.6406 12.8385 17.4688 13.4844 17.4688C13.8281 17.4688 14.1979 17.5417 14.5938 17.6875C15 17.8229 15.4271 18.0312 15.875 18.3125C15.8542 17.875 15.8438 17.4948 15.8438 17.1719C15.8438 16.2031 16.0417 15.349 16.4375 14.6094C16.8333 13.8698 17.9635 12.526 19.8281 10.5781C18.724 11.2135 17.849 11.6406 17.2031 11.8594C16.5677 12.0677 15.9375 12.1719 15.3125 12.1719C14.9792 12.1719 14.5469 12.125 14.0156 12.0312C13.4844 11.9375 13.1042 11.8906 12.875 11.8906C12.1146 11.8906 11.4688 12.0885 10.9375 12.4844C10.4167 12.8698 9.91667 13.5208 9.4375 14.4375L8.92188 14.3125C9.14062 13.2604 9.40625 12.474 9.71875 11.9531C10.2083 11.1198 10.8177 10.474 11.5469 10.0156C12.2865 9.55729 13.0312 9.32812 13.7812 9.32812C14.3646 9.32812 15.0885 9.46354 15.9531 9.73438C16.8177 10.0052 17.526 10.1406 18.0781 10.1406C18.9844 10.1406 19.9583 9.86979 21 9.32812L21.5625 9.6875C20.7083 10.9375 20.0625 12.3698 19.625 13.9844C19.1979 15.5885 18.9844 17.1458 18.9844 18.6562L19.0469 23.1094C19.0469 23.776 18.9427 24.3906 18.7344 24.9531C18.526 25.5052 18.224 26.0052 17.8281 26.4531C17.4427 26.8906 17.2031 27.151 17.1094 27.2344L12.5156 31.0781C13.3177 30.651 14.1771 30.2396 15.0938 29.8438C16.7604 29.1354 17.9479 28.5208 18.6562 28C19.375 27.4792 19.9271 26.8177 20.3125 26.0156C20.6979 25.2031 20.8906 24.1771 20.8906 22.9375L20.8125 18.0781C20.8125 16.901 21.0156 15.5625 21.4219 14.0625C21.8385 12.5521 22.5469 10.974 23.5469 9.32812ZM25.5312 15.3438L21.5625 18.5312V19L21.5938 21.4844L21.5625 23L28.125 18.3594L25.5312 15.3438ZM26.9531 27.7969C25.9844 26.2448 25.0885 25.1823 24.2656 24.6094C23.4427 24.026 22.5417 23.7135 21.5625 23.6719C21.5312 24.849 21.2969 25.8281 20.8594 26.6094C20.4323 27.3906 19.7083 28.1406 18.6875 28.8594C20.2917 28.9427 21.474 29.0781 22.2344 29.2656C22.9948 29.4531 23.8385 29.7865 24.7656 30.2656L26.9531 27.7969Z" fill="#D1588B"/>
</svg>
