<svg id="visual" viewBox="0 0 900 600" width="900" height="600" xmlns="http://www.w3.org/2000/svg" xmlns:xlink="http://www.w3.org/1999/xlink" version="1.1"><path d="M0 416L18.8 427.7C37.7 439.3 75.3 462.7 112.8 460C150.3 457.3 187.7 428.7 225.2 423.3C262.7 418 300.3 436 337.8 441.5C375.3 447 412.7 440 450.2 444.7C487.7 449.3 525.3 465.7 562.8 459.2C600.3 452.7 637.7 423.3 675.2 414.8C712.7 406.3 750.3 418.7 787.8 431.5C825.3 444.3 862.7 457.7 881.3 464.3L900 471L900 601L881.3 601C862.7 601 825.3 601 787.8 601C750.3 601 712.7 601 675.2 601C637.7 601 600.3 601 562.8 601C525.3 601 487.7 601 450.2 601C412.7 601 375.3 601 337.8 601C300.3 601 262.7 601 225.2 601C187.7 601 150.3 601 112.8 601C75.3 601 37.7 601 18.8 601L0 601Z" fill="#f7770f"></path><path d="M0 445L18.8 454.3C37.7 463.7 75.3 482.3 112.8 492.3C150.3 502.3 187.7 503.7 225.2 495.2C262.7 486.7 300.3 468.3 337.8 461C375.3 453.7 412.7 457.3 450.2 466.3C487.7 475.3 525.3 489.7 562.8 497.3C600.3 505 637.7 506 675.2 500.5C712.7 495 750.3 483 787.8 471.7C825.3 460.3 862.7 449.7 881.3 444.3L900 439L900 601L881.3 601C862.7 601 825.3 601 787.8 601C750.3 601 712.7 601 675.2 601C637.7 601 600.3 601 562.8 601C525.3 601 487.7 601 450.2 601C412.7 601 375.3 601 337.8 601C300.3 601 262.7 601 225.2 601C187.7 601 150.3 601 112.8 601C75.3 601 37.7 601 18.8 601L0 601Z" fill="#fd612a"></path><path d="M0 498L18.8 495.5C37.7 493 75.3 488 112.8 488C150.3 488 187.7 493 225.2 497.2C262.7 501.3 300.3 504.7 337.8 507C375.3 509.3 412.7 510.7 450.2 507.8C487.7 505 525.3 498 562.8 497C600.3 496 637.7 501 675.2 499.8C712.7 498.7 750.3 491.3 787.8 484.2C825.3 477 862.7 470 881.3 466.5L900 463L900 601L881.3 601C862.7 601 825.3 601 787.8 601C750.3 601 712.7 601 675.2 601C637.7 601 600.3 601 562.8 601C525.3 601 487.7 601 450.2 601C412.7 601 375.3 601 337.8 601C300.3 601 262.7 601 225.2 601C187.7 601 150.3 601 112.8 601C75.3 601 37.7 601 18.8 601L0 601Z" fill="#ff4a3e"></path><path d="M0 507L18.8 511.7C37.7 516.3 75.3 525.7 112.8 527.5C150.3 529.3 187.7 523.7 225.2 519.7C262.7 515.7 300.3 513.3 337.8 513.7C375.3 514 412.7 517 450.2 522C487.7 527 525.3 534 562.8 540C600.3 546 637.7 551 675.2 552.3C712.7 553.7 750.3 551.3 787.8 549.3C825.3 547.3 862.7 545.7 881.3 544.8L900 544L900 601L881.3 601C862.7 601 825.3 601 787.8 601C750.3 601 712.7 601 675.2 601C637.7 601 600.3 601 562.8 601C525.3 601 487.7 601 450.2 601C412.7 601 375.3 601 337.8 601C300.3 601 262.7 601 225.2 601C187.7 601 150.3 601 112.8 601C75.3 601 37.7 601 18.8 601L0 601Z" fill="#ff2f52"></path><path d="M0 559L18.8 555C37.7 551 75.3 543 112.8 539.5C150.3 536 187.7 537 225.2 545C262.7 553 300.3 568 337.8 570.3C375.3 572.7 412.7 562.3 450.2 557.5C487.7 552.7 525.3 553.3 562.8 554.5C600.3 555.7 637.7 557.3 675.2 558.7C712.7 560 750.3 561 787.8 563.8C825.3 566.7 862.7 571.3 881.3 573.7L900 576L900 601L881.3 601C862.7 601 825.3 601 787.8 601C750.3 601 712.7 601 675.2 601C637.7 601 600.3 601 562.8 601C525.3 601 487.7 601 450.2 601C412.7 601 375.3 601 337.8 601C300.3 601 262.7 601 225.2 601C187.7 601 150.3 601 112.8 601C75.3 601 37.7 601 18.8 601L0 601Z" fill="#ff0066"></path></svg>