<svg id="visual" viewBox="0 0 900 600" width="900" height="600" xmlns="http://www.w3.org/2000/svg" xmlns:xlink="http://www.w3.org/1999/xlink" version="1.1"><path d="M0 56L16.7 73.3C33.3 90.7 66.7 125.3 100 125C133.3 124.7 166.7 89.3 200 74C233.3 58.7 266.7 63.3 300 68C333.3 72.7 366.7 77.3 400 84.8C433.3 92.3 466.7 102.7 500 101C533.3 99.3 566.7 85.7 600 92.3C633.3 99 666.7 126 700 137.2C733.3 148.3 766.7 143.7 800 130.2C833.3 116.7 866.7 94.3 883.3 83.2L900 72L900 0L883.3 0C866.7 0 833.3 0 800 0C766.7 0 733.3 0 700 0C666.7 0 633.3 0 600 0C566.7 0 533.3 0 500 0C466.7 0 433.3 0 400 0C366.7 0 333.3 0 300 0C266.7 0 233.3 0 200 0C166.7 0 133.3 0 100 0C66.7 0 33.3 0 16.7 0L0 0Z" fill="#ff0066"></path><path d="M0 40L16.7 55.8C33.3 71.7 66.7 103.3 100 118.8C133.3 134.3 166.7 133.7 200 122.7C233.3 111.7 266.7 90.3 300 86.2C333.3 82 366.7 95 400 100.2C433.3 105.3 466.7 102.7 500 107.2C533.3 111.7 566.7 123.3 600 125.7C633.3 128 666.7 121 700 119.2C733.3 117.3 766.7 120.7 800 115.8C833.3 111 866.7 98 883.3 91.5L900 85L900 0L883.3 0C866.7 0 833.3 0 800 0C766.7 0 733.3 0 700 0C666.7 0 633.3 0 600 0C566.7 0 533.3 0 500 0C466.7 0 433.3 0 400 0C366.7 0 333.3 0 300 0C266.7 0 233.3 0 200 0C166.7 0 133.3 0 100 0C66.7 0 33.3 0 16.7 0L0 0Z" fill="#b71b7d"></path><path d="M0 47L16.7 56.8C33.3 66.7 66.7 86.3 100 95C133.3 103.7 166.7 101.3 200 96.3C233.3 91.3 266.7 83.7 300 73.3C333.3 63 366.7 50 400 50.5C433.3 51 466.7 65 500 73.7C533.3 82.3 566.7 85.7 600 79.8C633.3 74 666.7 59 700 48.8C733.3 38.7 766.7 33.3 800 41.2C833.3 49 866.7 70 883.3 80.5L900 91L900 0L883.3 0C866.7 0 833.3 0 800 0C766.7 0 733.3 0 700 0C666.7 0 633.3 0 600 0C566.7 0 533.3 0 500 0C466.7 0 433.3 0 400 0C366.7 0 333.3 0 300 0C266.7 0 233.3 0 200 0C166.7 0 133.3 0 100 0C66.7 0 33.3 0 16.7 0L0 0Z" fill="#672c76"></path><path d="M0 16L16.7 22.8C33.3 29.7 66.7 43.3 100 45.3C133.3 47.3 166.7 37.7 200 37.7C233.3 37.7 266.7 47.3 300 51.7C333.3 56 366.7 55 400 49.7C433.3 44.3 466.7 34.7 500 28.3C533.3 22 566.7 19 600 28.3C633.3 37.7 666.7 59.3 700 60.7C733.3 62 766.7 43 800 33.8C833.3 24.7 866.7 25.3 883.3 25.7L900 26L900 0L883.3 0C866.7 0 833.3 0 800 0C766.7 0 733.3 0 700 0C666.7 0 633.3 0 600 0C566.7 0 533.3 0 500 0C466.7 0 433.3 0 400 0C366.7 0 333.3 0 300 0C266.7 0 233.3 0 200 0C166.7 0 133.3 0 100 0C66.7 0 33.3 0 16.7 0L0 0Z" fill="#222553"></path><path d="M0 26L16.7 23.2C33.3 20.3 66.7 14.7 100 11.5C133.3 8.3 166.7 7.7 200 10.7C233.3 13.7 266.7 20.3 300 26.3C333.3 32.3 366.7 37.7 400 34.3C433.3 31 466.7 19 500 17.7C533.3 16.3 566.7 25.7 600 33.2C633.3 40.7 666.7 46.3 700 45.3C733.3 44.3 766.7 36.7 800 29.5C833.3 22.3 866.7 15.7 883.3 12.3L900 9L900 0L883.3 0C866.7 0 833.3 0 800 0C766.7 0 733.3 0 700 0C666.7 0 633.3 0 600 0C566.7 0 533.3 0 500 0C466.7 0 433.3 0 400 0C366.7 0 333.3 0 300 0C266.7 0 233.3 0 200 0C166.7 0 133.3 0 100 0C66.7 0 33.3 0 16.7 0L0 0Z" fill="#001122"></path></svg>