<svg id="visual" viewBox="0 0 960 540" width="960" height="540" xmlns="http://www.w3.org/2000/svg" xmlns:xlink="http://www.w3.org/1999/xlink" version="1.1"><path d="M0 89L17.8 89.2C35.7 89.3 71.3 89.7 106.8 94.8C142.3 100 177.7 110 213.2 110.7C248.7 111.3 284.3 102.7 320 94.2C355.7 85.7 391.3 77.3 426.8 75.2C462.3 73 497.7 77 533.2 83.2C568.7 89.3 604.3 97.7 640 104.3C675.7 111 711.3 116 746.8 114.3C782.3 112.7 817.7 104.3 853.2 102.5C888.7 100.7 924.3 105.3 942.2 107.7L960 110L960 0L942.2 0C924.3 0 888.7 0 853.2 0C817.7 0 782.3 0 746.8 0C711.3 0 675.7 0 640 0C604.3 0 568.7 0 533.2 0C497.7 0 462.3 0 426.8 0C391.3 0 355.7 0 320 0C284.3 0 248.7 0 213.2 0C177.7 0 142.3 0 106.8 0C71.3 0 35.7 0 17.8 0L0 0Z" fill="#fcaf3c"></path><path d="M0 97L17.8 88.8C35.7 80.7 71.3 64.3 106.8 63.8C142.3 63.3 177.7 78.7 213.2 76.5C248.7 74.3 284.3 54.7 320 53.2C355.7 51.7 391.3 68.3 426.8 69.5C462.3 70.7 497.7 56.3 533.2 48C568.7 39.7 604.3 37.3 640 47.3C675.7 57.3 711.3 79.7 746.8 91.5C782.3 103.3 817.7 104.7 853.2 96.8C888.7 89 924.3 72 942.2 63.5L960 55L960 0L942.2 0C924.3 0 888.7 0 853.2 0C817.7 0 782.3 0 746.8 0C711.3 0 675.7 0 640 0C604.3 0 568.7 0 533.2 0C497.7 0 462.3 0 426.8 0C391.3 0 355.7 0 320 0C284.3 0 248.7 0 213.2 0C177.7 0 142.3 0 106.8 0C71.3 0 35.7 0 17.8 0L0 0Z" fill="#f3664c"></path><path d="M0 8L17.8 11.3C35.7 14.7 71.3 21.3 106.8 30.2C142.3 39 177.7 50 213.2 50.7C248.7 51.3 284.3 41.7 320 42.7C355.7 43.7 391.3 55.3 426.8 57.2C462.3 59 497.7 51 533.2 42.5C568.7 34 604.3 25 640 27.7C675.7 30.3 711.3 44.7 746.8 45C782.3 45.3 817.7 31.7 853.2 32C888.7 32.3 924.3 46.7 942.2 53.8L960 61L960 0L942.2 0C924.3 0 888.7 0 853.2 0C817.7 0 782.3 0 746.8 0C711.3 0 675.7 0 640 0C604.3 0 568.7 0 533.2 0C497.7 0 462.3 0 426.8 0C391.3 0 355.7 0 320 0C284.3 0 248.7 0 213.2 0C177.7 0 142.3 0 106.8 0C71.3 0 35.7 0 17.8 0L0 0Z" fill="#c62368"></path></svg>