<svg id="visual" viewBox="0 0 960 540" width="960" height="540" xmlns="http://www.w3.org/2000/svg" xmlns:xlink="http://www.w3.org/1999/xlink" version="1.1"><path d="M0 411L17.8 417.3C35.7 423.7 71.3 436.3 106.8 443C142.3 449.7 177.7 450.3 213.2 446.7C248.7 443 284.3 435 320 425.2C355.7 415.3 391.3 403.7 426.8 399.3C462.3 395 497.7 398 533.2 404.2C568.7 410.3 604.3 419.7 640 420.8C675.7 422 711.3 415 746.8 422.3C782.3 429.7 817.7 451.3 853.2 457.2C888.7 463 924.3 453 942.2 448L960 443L960 541L942.2 541C924.3 541 888.7 541 853.2 541C817.7 541 782.3 541 746.8 541C711.3 541 675.7 541 640 541C604.3 541 568.7 541 533.2 541C497.7 541 462.3 541 426.8 541C391.3 541 355.7 541 320 541C284.3 541 248.7 541 213.2 541C177.7 541 142.3 541 106.8 541C71.3 541 35.7 541 17.8 541L0 541Z" fill="#001122"></path><path d="M0 468L17.8 466.2C35.7 464.3 71.3 460.7 106.8 453.7C142.3 446.7 177.7 436.3 213.2 435.3C248.7 434.3 284.3 442.7 320 447C355.7 451.3 391.3 451.7 426.8 454.5C462.3 457.3 497.7 462.7 533.2 461.5C568.7 460.3 604.3 452.7 640 448.2C675.7 443.7 711.3 442.3 746.8 437.8C782.3 433.3 817.7 425.7 853.2 429C888.7 432.3 924.3 446.7 942.2 453.8L960 461L960 541L942.2 541C924.3 541 888.7 541 853.2 541C817.7 541 782.3 541 746.8 541C711.3 541 675.7 541 640 541C604.3 541 568.7 541 533.2 541C497.7 541 462.3 541 426.8 541C391.3 541 355.7 541 320 541C284.3 541 248.7 541 213.2 541C177.7 541 142.3 541 106.8 541C71.3 541 35.7 541 17.8 541L0 541Z" fill="#1c2247"></path><path d="M0 442L17.8 451.3C35.7 460.7 71.3 479.3 106.8 482.7C142.3 486 177.7 474 213.2 470.7C248.7 467.3 284.3 472.7 320 470.8C355.7 469 391.3 460 426.8 460.5C462.3 461 497.7 471 533.2 475.7C568.7 480.3 604.3 479.7 640 480.8C675.7 482 711.3 485 746.8 487.2C782.3 489.3 817.7 490.7 853.2 484C888.7 477.3 924.3 462.7 942.2 455.3L960 448L960 541L942.2 541C924.3 541 888.7 541 853.2 541C817.7 541 782.3 541 746.8 541C711.3 541 675.7 541 640 541C604.3 541 568.7 541 533.2 541C497.7 541 462.3 541 426.8 541C391.3 541 355.7 541 320 541C284.3 541 248.7 541 213.2 541C177.7 541 142.3 541 106.8 541C71.3 541 35.7 541 17.8 541L0 541Z" fill="#4f2b64"></path><path d="M0 506L17.8 506.7C35.7 507.3 71.3 508.7 106.8 503.8C142.3 499 177.7 488 213.2 482.5C248.7 477 284.3 477 320 480.5C355.7 484 391.3 491 426.8 494C462.3 497 497.7 496 533.2 498.8C568.7 501.7 604.3 508.3 640 509.5C675.7 510.7 711.3 506.3 746.8 502.5C782.3 498.7 817.7 495.3 853.2 490.8C888.7 486.3 924.3 480.7 942.2 477.8L960 475L960 541L942.2 541C924.3 541 888.7 541 853.2 541C817.7 541 782.3 541 746.8 541C711.3 541 675.7 541 640 541C604.3 541 568.7 541 533.2 541C497.7 541 462.3 541 426.8 541C391.3 541 355.7 541 320 541C284.3 541 248.7 541 213.2 541C177.7 541 142.3 541 106.8 541C71.3 541 35.7 541 17.8 541L0 541Z" fill="#8b2970"></path><path d="M0 496L17.8 499.2C35.7 502.3 71.3 508.7 106.8 511.5C142.3 514.3 177.7 513.7 213.2 511.8C248.7 510 284.3 507 320 508.8C355.7 510.7 391.3 517.3 426.8 517.3C462.3 517.3 497.7 510.7 533.2 511C568.7 511.3 604.3 518.7 640 522.3C675.7 526 711.3 526 746.8 525.3C782.3 524.7 817.7 523.3 853.2 524.2C888.7 525 924.3 528 942.2 529.5L960 531L960 541L942.2 541C924.3 541 888.7 541 853.2 541C817.7 541 782.3 541 746.8 541C711.3 541 675.7 541 640 541C604.3 541 568.7 541 533.2 541C497.7 541 462.3 541 426.8 541C391.3 541 355.7 541 320 541C284.3 541 248.7 541 213.2 541C177.7 541 142.3 541 106.8 541C71.3 541 35.7 541 17.8 541L0 541Z" fill="#c62368"></path></svg>